<svg xmlns="http://www.w3.org/2000/svg" viewBox="0 0 512 512" role="img" aria-label="MindMint aura wheel">
  <rect width="512" height="512" rx="120" fill="#0b0b1a" />
  <g opacity="0.95">
    <path d="M 256.00 56.00 A 200 200 0 0 1 429.21 156.00 L 368.58 191.00 A 130 130 0 0 0 256.00 126.00 Z" fill="#f472b6" />
    <path d="M 429.21 156.00 A 200 200 0 0 1 429.21 356.00 L 368.58 321.00 A 130 130 0 0 0 368.58 191.00 Z" fill="#22d3ee" />
    <path d="M 429.21 356.00 A 200 200 0 0 1 256.00 456.00 L 256.00 386.00 A 130 130 0 0 0 368.58 321.00 Z" fill="#fb7185" />
    <path d="M 256.00 456.00 A 200 200 0 0 1 82.79 356.00 L 143.42 321.00 A 130 130 0 0 0 256.00 386.00 Z" fill="#facc15" />
    <path d="M 82.79 356.00 A 200 200 0 0 1 82.79 156.00 L 143.42 191.00 A 130 130 0 0 0 143.42 321.00 Z" fill="#60a5fa" />
    <path d="M 82.79 156.00 A 200 200 0 0 1 256.00 56.00 L 256.00 126.00 A 130 130 0 0 0 143.42 191.00 Z" fill="#a855f7" />
  </g>
  <circle cx="256.0" cy="256.0" r="110" fill="#0b0b1a" />
  <circle cx="256.0" cy="256.0" r="80" fill="#12062f" />
  <circle cx="256.0" cy="256.0" r="18" fill="#f5e9ff" />
</svg>